<svg xmlns="http://www.w3.org/2000/svg" enable-background="new 0 0 256 256" viewBox="0 0 256 256"><path fill="#419b46" d="M158.35,121c0,3.18,0.46,6.26,1.3,9.17c-4.37,0.56-8.25,2.71-11.06,5.83c-2.85,3.18-4.59,7.39-4.59,12
				s1.74,8.81,4.59,12H134v-60h31.9c-4.12,4.98-6.8,11.19-7.41,18h-0.14l0.12,0.22C158.39,119.13,158.35,120.06,158.35,121z"/><path fill="#a4d4a0" d="M122,100v60h-14.59c2.85-3.19,4.59-7.39,4.59-12s-1.74-8.82-4.59-12c-2.81-3.12-6.69-5.27-11.06-5.83
				c0.84-2.91,1.3-5.99,1.3-9.17c0-0.94-0.04-1.87-0.12-2.78l0.12-0.22h-0.14c-0.51-5.7-2.47-10.98-5.51-15.47V100H122z"/><rect width="12" height="60" x="122" y="100" fill="#65bc49"/><path fill="#1c2d6b" d="M148.59,163h-41.18c-1.183,0-2.255-0.695-2.738-1.774s-0.287-2.342,0.501-3.224
				C107.641,155.239,109,151.687,109,148c0-3.695-1.358-7.246-3.824-9.998c-2.412-2.678-5.685-4.405-9.207-4.856
				c-0.869-0.111-1.646-0.597-2.127-1.329c-0.48-0.732-0.617-1.638-0.374-2.479c0.784-2.716,1.183-5.521,1.183-8.337
				c0-0.852-0.036-1.698-0.108-2.517c-0.003-0.032-0.005-0.063-0.007-0.095c-0.006-0.041-0.01-0.081-0.014-0.122
				c-0.449-5.021-2.18-9.881-5.006-14.055C89.18,103.716,89,103.13,89,102.53V100c0-1.657,1.343-3,3-3h73.9
				c1.162,0,2.22,0.671,2.715,1.723c0.494,1.052,0.338,2.294-0.403,3.19c-3.866,4.672-6.194,10.328-6.733,16.355
				c-0.004,0.041-0.009,0.081-0.014,0.121c-0.002,0.032-0.004,0.063-0.007,0.095c-0.072,0.818-0.108,1.665-0.108,2.517
				c0,2.813,0.398,5.618,1.184,8.338c0.242,0.841,0.105,1.747-0.375,2.479c-0.481,0.732-1.258,1.217-2.126,1.329
				c-3.523,0.452-6.796,2.178-9.213,4.862C148.358,140.754,147,144.305,147,148c0,3.687,1.359,7.239,3.827,10.001
				c0.788,0.882,0.984,2.145,0.501,3.224S149.772,163,148.59,163z M112.971,157h30.059c-1.326-2.792-2.029-5.86-2.029-9
				c0-5.175,1.902-10.148,5.355-14.002c2.627-2.916,5.978-5.023,9.659-6.117c-0.441-2.269-0.665-4.573-0.665-6.881
				c0-0.781,0.025-1.561,0.076-2.327c-0.143-0.621-0.085-1.275,0.171-1.866c0.565-4.901,2.121-9.581,4.57-13.807H95.831
				c2.444,4.231,4.008,8.945,4.571,13.806c0.257,0.591,0.314,1.246,0.172,1.867c0.051,0.766,0.076,1.545,0.076,2.327
				c0,2.311-0.223,4.614-0.665,6.882c3.682,1.093,7.031,3.199,9.654,6.11c3.458,3.86,5.36,8.833,5.36,14.008
				C115,151.14,114.297,154.208,112.971,157z"/><path fill="#ede49d" d="M114,100v36h-6.59c-2.81-3.12-6.69-5.27-11.06-5.83c0.84-2.91,1.3-5.99,1.3-9.17c0-0.94-0.04-1.87-0.12-2.78
				l0.12-0.22h-0.14c-0.51-5.7-2.47-10.98-5.51-15.47V100H114z"/><path fill="#d3ba2a" d="M158.35,121c0,3.18,0.46,6.26,1.3,9.17c-4.37,0.56-8.25,2.71-11.06,5.83H142v-36h23.9
				c-4.12,4.98-6.8,11.19-7.41,18h-0.14l0.12,0.22C158.39,119.13,158.35,120.06,158.35,121z"/><rect width="28" height="36" x="114" y="100" fill="#eee045"/><path fill="#1c2d6b" d="M148.59,139h-41.18c-0.85,0-1.66-0.36-2.229-0.992c-2.417-2.684-5.689-4.411-9.212-4.862
				c-0.869-0.111-1.646-0.597-2.127-1.329c-0.48-0.732-0.617-1.638-0.374-2.479c0.784-2.716,1.183-5.521,1.183-8.337
				c0-0.852-0.036-1.698-0.108-2.517c-0.003-0.032-0.005-0.063-0.007-0.095c-0.006-0.041-0.01-0.081-0.014-0.122
				c-0.449-5.021-2.18-9.881-5.006-14.055C89.18,103.716,89,103.13,89,102.53V100c0-1.657,1.343-3,3-3h73.9
				c1.162,0,2.22,0.671,2.715,1.723c0.494,1.052,0.338,2.294-0.403,3.19c-3.866,4.672-6.194,10.328-6.733,16.355
				c-0.004,0.041-0.009,0.081-0.014,0.121c-0.002,0.032-0.004,0.063-0.007,0.095c-0.072,0.818-0.108,1.665-0.108,2.517
				c0,2.813,0.398,5.618,1.184,8.338c0.242,0.841,0.105,1.747-0.375,2.479c-0.481,0.732-1.258,1.217-2.126,1.329
				c-3.523,0.452-6.796,2.178-9.213,4.862C150.25,138.64,149.439,139,148.59,139z M108.686,133h38.629
				c2.46-2.4,5.451-4.154,8.7-5.119c-0.441-2.269-0.665-4.573-0.665-6.881c0-0.781,0.025-1.561,0.076-2.327
				c-0.143-0.621-0.085-1.275,0.171-1.866c0.565-4.901,2.121-9.581,4.57-13.807H95.831c2.444,4.231,4.008,8.945,4.571,13.806
				c0.257,0.591,0.314,1.246,0.172,1.867c0.051,0.766,0.076,1.545,0.076,2.327c0,2.311-0.223,4.614-0.665,6.882
				C103.234,128.846,106.226,130.6,108.686,133z"/><path fill="#e95947" d="M145.5 112h-7c-3.038 0-5.5 2.462-5.5 5.5v0c0 3.038 2.462 5.5 5.5 5.5h7c3.038 0 5.5-2.462 5.5-5.5v0C151 114.462 148.538 112 145.5 112zM117.5 112h-7c-3.038 0-5.5 2.462-5.5 5.5v0c0 3.038 2.462 5.5 5.5 5.5h7c3.038 0 5.5-2.462 5.5-5.5v0C123 114.462 120.538 112 117.5 112z"/><path fill="#1c2d6b" d="M145.5 126h-7c-4.687 0-8.5-3.813-8.5-8.5s3.813-8.5 8.5-8.5h7c4.687 0 8.5 3.813 8.5 8.5S150.187 126 145.5 126zM138.5 115c-1.379 0-2.5 1.122-2.5 2.5s1.121 2.5 2.5 2.5h7c1.379 0 2.5-1.122 2.5-2.5s-1.121-2.5-2.5-2.5H138.5zM117.5 126h-7c-4.687 0-8.5-3.813-8.5-8.5s3.813-8.5 8.5-8.5h7c4.687 0 8.5 3.813 8.5 8.5S122.187 126 117.5 126zM110.5 115c-1.379 0-2.5 1.122-2.5 2.5s1.121 2.5 2.5 2.5h7c1.379 0 2.5-1.122 2.5-2.5s-1.121-2.5-2.5-2.5H110.5z"/><path fill="#ef7f72" d="M78.75,83.08v8.09c-3-1.43-6.25-2.41-9.66-2.87v-5.22c0-2.55-0.54-4.62-1.21-4.62h7.36
					C77.18,78.46,78.75,80.53,78.75,83.08z"/><path fill="#e8383b" d="M60.12,78.46c-0.67,0-1.21,2.07-1.21,4.62v5.43c-3.43,0.59-6.69,1.73-9.66,3.31v-8.74
					c0-2.55,1.57-4.62,3.51-4.62H60.12z"/><path fill="#e95947" d="M69.09,83.08v5.22c-1.45-0.2-2.93-0.3-4.44-0.3c-1.96,0-3.88,0.17-5.74,0.51v-5.43
					c0-2.55,0.54-4.62,1.21-4.62h7.76C68.55,78.46,69.09,80.53,69.09,83.08z"/><path fill="#1c2d6b" d="M49.25,94.82c-0.535,0-1.07-0.143-1.545-0.428c-0.902-0.542-1.455-1.519-1.455-2.572v-8.74
					c0-4.273,2.859-7.62,6.51-7.62h22.48c3.65,0,6.51,3.347,6.51,7.62v8.09c0,1.03-0.528,1.987-1.398,2.537
					c-0.873,0.55-1.963,0.613-2.893,0.171c-2.762-1.316-5.713-2.192-8.771-2.605c-3.033-0.418-6.28-0.352-9.239,0.188
					c-3.087,0.532-6.034,1.542-8.79,3.007C50.218,94.703,49.733,94.82,49.25,94.82z M75.145,81.443L52.76,81.46
					c-0.082,0.069-0.51,0.663-0.51,1.62v4.118c1.995-0.733,4.052-1.284,6.151-1.645c3.527-0.645,7.453-0.727,11.098-0.226
					c2.131,0.288,4.221,0.764,6.251,1.423V83.08C75.75,82.123,75.322,81.529,75.145,81.443z"/><path fill="#4b67b0" d="M20.687,161.869L31.655,118h0.142c1.517-16.818,15.645-30,32.858-30c0.159,0,0.316,0.009,0.475,0.011
					C57,88.252,50.36,101.337,49.642,118h-0.068l-5.245,43.869c-1.367,11.434,1.672,22.574,6.549,26.572
					C48.294,189.45,45.513,190,42.651,190C27.922,190,17.115,176.158,20.687,161.869z"/><path fill="#89aadb" d="M80.515,130.171c0.403-2.913,0.624-5.986,0.624-9.171c0-0.939-0.023-1.866-0.06-2.785l0.06-0.215h-0.068
					C80.365,101.622,73.938,88.698,66,88.032c16.598,0.666,30.036,13.59,31.513,29.968h0.142l-0.126,0.215
					c0.077,0.919,0.126,1.846,0.126,2.785c0,3.184-0.463,6.258-1.305,9.171C105.178,131.324,112,138.857,112,148
					c0,9.941-8.059,18-18,18c-3.653,0-7.042-1.098-9.878-2.969C86.457,159.812,88,154.286,88,148
					C88,138.857,84.737,131.324,80.515,130.171z"/><path fill="#6287c5" d="M65.356,88c0.216,0,0.43,0.014,0.644,0.032c-0.289-0.012-0.58-0.017-0.871-0.021
					C65.205,88.009,65.28,88,65.356,88z"/><path fill="#6287c5" d="M44.329,161.869L49.574,118h0.068C50.36,101.337,57,88.252,65.129,88.011
					c0.291,0.004,0.582,0.009,0.871,0.021c7.938,0.666,14.365,13.59,15.071,29.968h0.068l-0.06,0.215
					c0.037,0.919,0.06,1.846,0.06,2.785c0,3.184-0.221,6.258-0.624,9.171C84.737,131.324,88,138.857,88,148
					c0,6.286-1.543,11.812-3.878,15.031c-3.367-2.221-5.95-5.534-7.227-9.444l-14.689,25.18c-2.615,4.483-6.643,7.844-11.329,9.674
					C46,184.444,42.961,173.304,44.329,161.869z"/><circle cx="94" cy="148" r="8" fill="#e95947"/><path fill="#1c2d6b" d="M94,159c-6.065,0-11-4.935-11-11s4.935-11,11-11s11,4.935,11,11S100.065,159,94,159z M94,143
					c-2.757,0-5,2.243-5,5s2.243,5,5,5s5-2.243,5-5S96.757,143,94,143z"/><circle cx="64" cy="106" r="6" fill="#65bc49"/><circle cx="64" cy="142" r="6" fill="#65bc49"/><circle cx="46" cy="124" r="6" fill="#65bc49"/><circle cx="82" cy="124" r="6" fill="#65bc49"/><g><path fill="#1c2d6b" d="M64 115c-4.963 0-9-4.038-9-9s4.037-9 9-9 9 4.038 9 9S68.963 115 64 115zM64 103c-1.654 0-3 1.346-3 3s1.346 3 3 3 3-1.346 3-3S65.654 103 64 103zM64 151c-4.963 0-9-4.038-9-9s4.037-9 9-9 9 4.038 9 9S68.963 151 64 151zM64 139c-1.654 0-3 1.346-3 3s1.346 3 3 3 3-1.346 3-3S65.654 139 64 139zM46 133c-4.963 0-9-4.038-9-9s4.037-9 9-9 9 4.038 9 9S50.963 133 46 133zM46 121c-1.654 0-3 1.346-3 3s1.346 3 3 3 3-1.346 3-3S47.654 121 46 121zM82 133c-4.963 0-9-4.038-9-9s4.037-9 9-9 9 4.038 9 9S86.963 133 82 133zM82 121c-1.654 0-3 1.346-3 3s1.346 3 3 3 3-1.346 3-3S83.654 121 82 121z"/></g><g><path fill="#1c2d6b" d="M42.65,193c-7.95,0-15.315-3.594-20.208-9.86c-4.894-6.267-6.594-14.285-4.665-21.998l10.967-43.869
					c0.04-0.163,0.094-0.32,0.159-0.47C31.005,98.607,46.214,85,64.654,85s33.649,13.607,35.751,31.803
					c0.261,0.599,0.316,1.263,0.168,1.889c0.055,0.816,0.081,1.577,0.081,2.308c0,2.308-0.225,4.613-0.669,6.886
					C108.739,130.488,115,138.624,115,148c0,11.58-9.421,21-21,21c-7.062,0-13.47-3.498-17.311-9.106l-11.893,20.386
					C60.222,188.125,51.735,193,42.65,193z M34.355,119.566l-10.758,43.03c-1.477,5.909-0.175,12.05,3.573,16.851
					c3.748,4.8,9.39,7.553,15.479,7.553c6.959,0,13.459-3.733,16.964-9.744l14.69-25.181c0.595-1.021,1.74-1.604,2.909-1.471
					c1.175,0.125,2.167,0.929,2.533,2.052C81.767,158.843,87.495,163,94,163c8.271,0,15-6.729,15-15
					c0-7.497-5.605-13.883-13.039-14.854c-0.867-0.113-1.642-0.6-2.121-1.331c-0.479-0.732-0.615-1.636-0.372-2.477
					c0.787-2.725,1.187-5.53,1.187-8.338c0-0.775-0.037-1.605-0.114-2.537c-0.004-0.042-0.007-0.083-0.008-0.125
					c-0.003-0.023-0.005-0.046-0.008-0.069C93.123,102.723,80.281,91,64.654,91s-28.469,11.723-29.87,27.27
					C34.741,118.744,34.59,119.184,34.355,119.566z"/></g><g><path fill="#ef7f72" d="M177.25,83.08v8.09c3-1.43,6.25-2.41,9.66-2.87v-5.22c0-2.55,0.54-4.62,1.21-4.62h-7.36
					C178.82,78.46,177.25,80.53,177.25,83.08z"/><path fill="#e8383b" d="M195.88,78.46c0.67,0,1.21,2.07,1.21,4.62v5.43c3.43,0.59,6.69,1.73,9.66,3.31v-8.74
					c0-2.55-1.57-4.62-3.51-4.62H195.88z"/><path fill="#e95947" d="M186.91,83.08v5.22c1.45-0.2,2.93-0.3,4.44-0.3c1.96,0,3.88,0.17,5.74,0.51v-5.43
					c0-2.55-0.54-4.62-1.21-4.62h-7.76C187.45,78.46,186.91,80.53,186.91,83.08z"/><path fill="#1c2d6b" d="M206.75,94.82c-0.483,0-0.968-0.117-1.409-0.352c-2.757-1.466-5.703-2.476-8.76-3.001
					c-3.011-0.55-6.246-0.61-9.262-0.195c-3.067,0.414-6.018,1.29-8.778,2.606c-0.93,0.442-2.021,0.378-2.893-0.171
					c-0.87-0.55-1.398-1.507-1.398-2.537v-8.09c0-4.273,2.859-7.62,6.51-7.62h22.48c3.65,0,6.51,3.347,6.51,7.62v8.74
					c0,1.053-0.553,2.029-1.455,2.572C207.82,94.676,207.285,94.82,206.75,94.82z M191.35,85c2.14,0,4.253,0.188,6.28,0.559
					c2.081,0.358,4.129,0.906,6.12,1.639V83.08c0-0.958-0.428-1.551-0.605-1.637L180.76,81.46c-0.082,0.069-0.51,0.663-0.51,1.62
					v3.671c2.03-0.66,4.123-1.136,6.259-1.424C188.081,85.11,189.712,85,191.35,85z"/><path fill="#4b67b0" d="M235.313,161.869L224.345,118h-0.142c-1.517-16.818-15.645-30-32.858-30c-0.159,0-0.316,0.009-0.475,0.011
					C199,88.252,205.64,101.337,206.358,118h0.068l5.245,43.869c1.367,11.434-1.672,22.574-6.549,26.572
					c2.584,1.009,5.365,1.558,8.227,1.558C228.078,190,238.885,176.158,235.313,161.869z"/><path fill="#89aadb" d="M175.485,130.171c-0.403-2.913-0.624-5.986-0.624-9.171c0-0.939,0.023-1.866,0.06-2.785l-0.06-0.215h0.068
					c0.707-16.378,7.133-29.302,15.071-29.968c-16.598,0.666-30.036,13.59-31.513,29.968h-0.142l0.126,0.215
					c-0.077,0.919-0.126,1.846-0.126,2.785c0,3.184,0.463,6.258,1.305,9.171C150.822,131.324,144,138.857,144,148
					c0,9.941,8.059,18,18,18c3.653,0,7.042-1.098,9.878-2.969C169.543,159.812,168,154.286,168,148
					C168,138.857,171.263,131.324,175.485,130.171z"/><path fill="#6287c5" d="M190.644,88c-0.216,0-0.43,0.014-0.644,0.032c0.289-0.012,0.58-0.017,0.871-0.021
					C190.795,88.009,190.72,88,190.644,88z"/><path fill="#6287c5" d="M211.671,161.869L206.426,118h-0.068c-0.719-16.663-7.359-29.748-15.488-29.989
					c-0.291,0.004-0.582,0.009-0.871,0.021c-7.938,0.666-14.365,13.59-15.071,29.968h-0.068l0.06,0.215
					c-0.037,0.919-0.06,1.846-0.06,2.785c0,3.184,0.221,6.258,0.624,9.171C171.263,131.324,168,138.857,168,148
					c0,6.286,1.543,11.812,3.878,15.031c3.367-2.221,5.95-5.534,7.227-9.444l14.689,25.18c2.615,4.483,6.643,7.844,11.329,9.674
					C210,184.444,213.039,173.304,211.671,161.869z"/><circle cx="162" cy="148" r="8" fill="#e95947"/><path fill="#1c2d6b" d="M162,159c-6.065,0-11-4.935-11-11s4.935-11,11-11s11,4.935,11,11S168.065,159,162,159z M162,143
					c-2.757,0-5,2.243-5,5s2.243,5,5,5s5-2.243,5-5S164.757,143,162,143z"/><circle cx="192" cy="106" r="6" fill="#65bc49"/><circle cx="192" cy="142" r="6" fill="#65bc49"/><circle cx="210" cy="124" r="6" fill="#65bc49"/><circle cx="174" cy="124" r="6" fill="#65bc49"/><g><path fill="#1c2d6b" d="M192 115c-4.963 0-9-4.038-9-9s4.037-9 9-9 9 4.038 9 9S196.963 115 192 115zM192 103c-1.654 0-3 1.346-3 3s1.346 3 3 3 3-1.346 3-3S193.654 103 192 103zM192 151c-4.963 0-9-4.038-9-9s4.037-9 9-9 9 4.038 9 9S196.963 151 192 151zM192 139c-1.654 0-3 1.346-3 3s1.346 3 3 3 3-1.346 3-3S193.654 139 192 139zM210 133c-4.963 0-9-4.038-9-9s4.037-9 9-9 9 4.038 9 9S214.963 133 210 133zM210 121c-1.654 0-3 1.346-3 3s1.346 3 3 3 3-1.346 3-3S211.654 121 210 121zM174 133c-4.963 0-9-4.038-9-9s4.037-9 9-9 9 4.038 9 9S178.963 133 174 133zM174 121c-1.654 0-3 1.346-3 3s1.346 3 3 3 3-1.346 3-3S175.654 121 174 121z"/></g><g><path fill="#1c2d6b" d="M213.35,193c-9.085,0-17.571-4.875-22.147-12.721l-11.892-20.385C175.47,165.502,169.062,169,162,169
					c-11.579,0-21-9.42-21-21c0-9.376,6.261-17.512,15.015-20.114c-0.444-2.272-0.669-4.578-0.669-6.886
					c0-0.73,0.026-1.491,0.081-2.308c-0.148-0.626-0.093-1.29,0.168-1.889C157.696,98.607,172.905,85,191.346,85
					s33.649,13.607,35.751,31.803c0.065,0.15,0.119,0.307,0.159,0.47l10.967,43.87c1.929,7.713,0.229,15.731-4.664,21.998
					C228.666,189.406,221.3,193,213.35,193z M179.105,150.587c1.059,0,2.049,0.561,2.59,1.488l14.689,25.18
					c3.506,6.011,10.006,9.744,16.965,9.744c6.09,0,11.731-2.753,15.479-7.553c3.748-4.8,5.05-10.942,3.573-16.85l0,0
					l-10.758-43.031c-0.234-0.383-0.386-0.823-0.429-1.297C219.814,102.723,206.973,91,191.346,91s-28.469,11.723-29.87,27.27
					c-0.003,0.023-0.005,0.046-0.008,0.069c-0.001,0.042-0.004,0.083-0.008,0.125c-0.077,0.931-0.114,1.761-0.114,2.537
					c0,2.808,0.399,5.613,1.187,8.338c0.243,0.84,0.107,1.745-0.372,2.477c-0.479,0.731-1.254,1.218-2.121,1.331
					C152.605,134.117,147,140.503,147,148c0,8.271,6.729,15,15,15c6.505,0,12.233-4.157,14.253-10.344
					c0.366-1.123,1.358-1.927,2.533-2.052C178.893,150.593,179,150.587,179.105,150.587z"/></g></g></svg>