<svg xmlns="http://www.w3.org/2000/svg" enable-background="new 0 0 512 512" viewBox="0 0 512 512"><path fill="none" d="M294.81,200.29h24.881v-7H294.81c-2.875,0-5.371-1.623-6.63-4c-0.554,1.045-0.87,2.235-0.87,3.5   C287.31,196.93,290.67,200.29,294.81,200.29z"/><rect width="127.38" height="7" x="192.31" y="112.22" fill="none"/><path fill="none" d="M224.69 157.19c0-1.265-.316-2.455-.87-3.5-1.258 2.377-3.754 4-6.63 4h-24.88v7h24.88C221.33 164.69 224.69 161.33 224.69 157.19zM294.81 164.69h24.881v-7H294.81c-2.875 0-5.371-1.623-6.63-4-.554 1.045-.87 2.235-.87 3.5C287.31 161.33 290.67 164.69 294.81 164.69zM294.81 235.89h24.881v-7H294.81c-2.876 0-5.373-1.624-6.631-4.002-.553 1.045-.869 2.236-.869 3.502C287.31 232.53 290.67 235.89 294.81 235.89zM256 41.03c-32.58 0-59.51 24.59-63.24 56.19h126.48C315.51 65.62 288.58 41.03 256 41.03zM256 330.559c32.58 0 59.51-24.6 63.23-56.199H192.76C196.49 305.96 223.42 330.559 256 330.559zM224.69 192.79c0-1.265-.316-2.455-.87-3.5-1.258 2.377-3.754 4-6.63 4h-24.88v7h24.88C221.33 200.29 224.69 196.93 224.69 192.79z"/><polygon fill="none" points="202.03 438.51 183.67 470.969 187.63 470.969 202.03 445.51 309.97 445.51 324.371 470.969 328.33 470.969 309.97 438.51"/><path fill="none" d="M224.69,228.39c0-1.267-0.316-2.457-0.869-3.502c-1.258,2.379-3.754,4.002-6.631,4.002h-24.88v7h24.88   C221.33,235.89,224.69,232.53,224.69,228.39z"/><polygon fill="#C8EAFC" points="202.03 445.51 187.63 470.969 324.371 470.969 309.97 445.51"/><path fill="#C8EAFC" d="M319.691,235.89H294.81c-4.14,0-7.5-3.36-7.5-7.5c0-1.267,0.316-2.457,0.869-3.502   c-0.553-1.045-0.869-2.234-0.869-3.498c0-4.15,3.36-7.5,7.5-7.5h24.881v-13.6H294.81c-4.14,0-7.5-3.36-7.5-7.5   c0-1.265,0.316-2.455,0.87-3.5c-0.554-1.045-0.87-2.235-0.87-3.5c0-4.14,3.36-7.5,7.5-7.5h24.881v-13.6H294.81   c-4.14,0-7.5-3.36-7.5-7.5c0-1.265,0.316-2.455,0.87-3.5c-0.554-1.045-0.87-2.235-0.87-3.5c0-4.14,3.36-7.5,7.5-7.5h24.881v-23.47   H192.31v23.47h24.88c4.14,0,7.5,3.36,7.5,7.5c0,1.265-0.316,2.455-0.87,3.5c0.554,1.045,0.87,2.235,0.87,3.5   c0,4.14-3.36,7.5-7.5,7.5h-24.88v13.6h24.88c4.14,0,7.5,3.36,7.5,7.5c0,1.265-0.316,2.455-0.87,3.5   c0.554,1.045,0.87,2.235,0.87,3.5c0,4.14-3.36,7.5-7.5,7.5h-24.88v13.6h24.88c4.14,0,7.5,3.35,7.5,7.5   c0,1.264-0.316,2.453-0.869,3.498c0.553,1.045,0.869,2.236,0.869,3.502c0,4.14-3.36,7.5-7.5,7.5h-24.88v23.47h127.38V235.89z"/><path fill="#0680EF" d="M320.87,427.32c-1.33-2.351-3.83-3.811-6.53-3.811H263.5v-42.58c59.55-3.88,106.82-53.55,106.82-114.069   c0-4.141-3.36-7.5-7.5-7.5c-4.15,0-7.5,3.359-7.5,7.5c0,54.77-44.561,99.319-99.32,99.319s-99.32-44.55-99.32-99.319   c0-4.141-3.36-7.5-7.5-7.5c-4.14,0-7.5,3.359-7.5,7.5c0,60.52,47.27,110.189,106.82,114.069v42.58h-50.85   c-2.7,0-5.19,1.46-6.53,3.811l-26.84,47.46c-1.31,2.319-1.29,5.17,0.05,7.47c1.35,2.31,3.81,3.72,6.48,3.72h170.37   c0.011,0,0.021,0,0.021,0c4.149,0,7.5-3.35,7.5-7.5c0-1.529-0.45-2.95-1.24-4.13L320.87,427.32z M324.371,470.969H187.63h-3.959   l18.36-32.46h107.94l18.36,32.46H324.371z"/><path fill="#0680EF" d="M177.3,221.39c0,0.01,0.01,0.02,0.01,0.03v45.44c0,43.39,35.3,78.699,78.69,78.699   c43.38,0,78.67-35.279,78.69-78.659V104.72c0-43.39-35.301-78.69-78.69-78.69c-43.38,0-78.67,35.28-78.69,78.65v45.47   c0,0.01-0.01,0.03-0.01,0.04c0,0.01,0.01,0.02,0.01,0.04v35.52c0,0.02-0.01,0.03-0.01,0.04c0,0.02,0.01,0.03,0.01,0.04v35.52   C177.31,221.36,177.3,221.37,177.3,221.39z M256,330.559c-32.58,0-59.51-24.6-63.24-56.199h126.471   C315.51,305.96,288.58,330.559,256,330.559z M256,41.03c32.58,0,59.51,24.59,63.24,56.19H192.76   C196.49,65.62,223.42,41.03,256,41.03z M192.31,235.89v-7h24.88c2.876,0,5.373-1.624,6.631-4.002   c0.553-1.045,0.869-2.234,0.869-3.498c0-4.15-3.36-7.5-7.5-7.5h-24.88v-13.6v-7h24.88c2.875,0,5.372-1.623,6.63-4   c0.554-1.045,0.87-2.235,0.87-3.5c0-4.14-3.36-7.5-7.5-7.5h-24.88v-13.6v-7h24.88c2.875,0,5.372-1.623,6.63-4   c0.554-1.045,0.87-2.235,0.87-3.5c0-4.14-3.36-7.5-7.5-7.5h-24.88v-23.47v-7h127.38v7v23.47H294.81c-4.14,0-7.5,3.36-7.5,7.5   c0,1.265,0.316,2.455,0.87,3.5c1.259,2.377,3.755,4,6.63,4h24.881v7v13.6H294.81c-4.14,0-7.5,3.36-7.5,7.5   c0,1.265,0.316,2.455,0.87,3.5c1.259,2.377,3.755,4,6.63,4h24.881v7v13.6H294.81c-4.14,0-7.5,3.35-7.5,7.5   c0,1.264,0.316,2.453,0.869,3.498c1.258,2.379,3.755,4.002,6.631,4.002h24.881v7v23.47H192.31V235.89z"/></svg>