<svg xmlns="http://www.w3.org/2000/svg" viewBox="0 0 44 40"><path fill="#a9e4ec" d="M37.897 4.895h5.05v34h-42v-34H5.92"/><path fill="#44dfec" d="M18.947 32.895h-13v-32h11c2.761 0 5 1.738 5 4.5v27.5"/><path fill="#44c1ec" d="M5.947.895v32h16v-5.543A18.08 18.08 0 0 1 9.76 10.302 18.08 18.08 0 0 1 12.43.896z"/><path fill="#44dfec" d="M37.947.895h-11c-2.762 0-5 1.738-5 4.5v27.5h16z"/><path fill="#44c1ec" d="M37.947 25.266a18.08 18.08 0 0 1-10.105 3.117 18.08 18.08 0 0 1-5.895-1.031v5.543h16z"/><path fill="#004690" d="M6 0a1 1 0 0 0-1 1v3H1a1 1 0 0 0-1 1v34a1 1 0 0 0 1 1h42a1 1 0 0 0 1-1V5a1 1 0 0 0-1-1h-4V1a1 1 0 0 0-1-1H27c-1.59 0-3.077.5-4.188 1.457A5.143 5.143 0 0 0 22 2.35a5.142 5.142 0 0 0-.813-.893C20.078.5 18.591 0 17 0Zm1 2h10c1.17 0 2.184.37 2.883.973C20.582 3.575 21 4.39 21 5.5V33a1 1 0 0 0 1 1h16a1 1 0 0 0 1-1V6h3v32H2V6h3v27a1 1 0 0 0 1 1h13v-2H7Zm20 0h10v30H23V5.5c0-1.11.418-1.925 1.117-2.527C24.817 2.37 25.83 2 27 2Z" color="#000"/><path fill="#004690" d="M10 6v2h8V6zm0 5v2h8v-2zm0 5v2h8v-2zM26 6v2h8V6zm0 5v2h8v-2zm0 5v2h8v-2zm-16 5v2h8v-2zm16 0v2h8v-2zm-16 5v2h8v-2zm16 0v2h8v-2z" color="#000"/></svg>